<svg xmlns="http://www.w3.org/2000/svg" viewBox="0 0 393.27 61.88"><defs><style>.cls-1{fill:#5b87c5;}.cls-2{fill:#63beeb;}.cls-3{font-size:40px;fill:#293b68;font-family:Roboto-Bold, Roboto;font-weight:700;}.cls-4{fill:#428ac9;}</style></defs><g id="Layer_2" data-name="Layer 2"><g id="Layer_1-2" data-name="Layer 1"><path class="cls-1" d="M30.94,0H61.88a0,0,0,0,1,0,0V30.94A30.94,30.94,0,0,1,30.94,61.88h0A30.94,30.94,0,0,1,0,30.94v0A30.94,30.94,0,0,1,30.94,0Z"/><path class="cls-2" d="M63.54,0h61.88a0,0,0,0,1,0,0V61.88a0,0,0,0,1,0,0h0A61.88,61.88,0,0,1,63.54,0V0A0,0,0,0,1,63.54,0Z"/><text class="cls-3" transform="translate(135.84 39.62)">Cabinet Rafik</text><path class="cls-4" d="M392.11,6.54h-2.73V3.81a1.16,1.16,0,1,0-2.31,0V6.54h-2.73a1.16,1.16,0,1,0,0,2.31h2.73v2.74a1.16,1.16,0,0,0,2.31,0V8.85h2.73a1.16,1.16,0,1,0,0-2.31Z"/></g></g></svg>