<?xml version="1.0" encoding="iso-8859-1"?>
<!-- Generator: Adobe Illustrator 19.0.0, SVG Export Plug-In . SVG Version: 6.00 Build 0)  -->
<svg version="1.1" id="Layer_1" xmlns="http://www.w3.org/2000/svg" xmlns:xlink="http://www.w3.org/1999/xlink" x="0px" y="0px"
	 viewBox="0 0 359.928 359.928" style="enable-background:new 0 0 359.928 359.928;" xml:space="preserve">
<g id="XMLID_225_">
	<path id="XMLID_226_" d="M327.139,150.366c1.842-8.121,2.789-16.328,2.789-24.508c0-54.646-42.805-97.451-97.449-97.451
		c-24.561,0-48.827,9.249-67.512,25.279c-18.688-16.032-42.955-25.279-67.516-25.279C42.806,28.406,0,71.212,0,125.857
		C0,191.912,45.99,232.286,115.604,293.4c5.95,5.224,12.091,10.614,18.41,16.202c0.043,0.039,0.087,0.077,0.131,0.115l21.018,18.155
		c2.816,2.433,6.311,3.648,9.806,3.648s6.99-1.217,9.807-3.649l18.769-16.216c17.276,12.491,38.483,19.865,61.384,19.865
		c57.897,0,105-47.103,105-105C359.928,196.572,347.321,169.513,327.139,150.366z M164.968,296.699l-11.146-9.629
		c-6.323-5.592-12.469-10.987-18.425-16.215C69.672,213.156,30,178.329,30,125.857c0-38.454,28.998-67.451,67.451-67.451
		c20.925,0,42.407,10.03,56.065,26.177c2.851,3.37,7.04,5.313,11.453,5.313c4.414,0,8.604-1.944,11.453-5.315
		c13.651-16.145,35.131-26.174,56.056-26.174c38.452,0,67.449,28.998,67.449,67.451c0,1.916-0.076,3.816-0.211,5.71
		c-13.593-6.438-28.776-10.046-44.789-10.046c-57.897,0-105,47.103-105,105c0,24.157,8.205,46.431,21.968,64.192L164.968,296.699z
		 M254.928,301.522c-41.355,0-75-33.645-75-75s33.645-75,75-75c41.355,0,75,33.645,75,75S296.283,301.522,254.928,301.522z"/>
	<path id="XMLID_230_" d="M276.321,193.915l-34.393,34.393l-9.394-9.393c-5.857-5.858-15.355-5.858-21.213,0
		c-5.858,5.858-5.858,15.355,0,21.213l20,20c2.929,2.929,6.768,4.394,10.606,4.394c3.839,0,7.678-1.464,10.606-4.394l45-45
		c5.858-5.858,5.858-15.355,0-21.213C291.677,188.057,282.179,188.057,276.321,193.915z"/>
</g>
<g>
</g>
<g>
</g>
<g>
</g>
<g>
</g>
<g>
</g>
<g>
</g>
<g>
</g>
<g>
</g>
<g>
</g>
<g>
</g>
<g>
</g>
<g>
</g>
<g>
</g>
<g>
</g>
<g>
</g>
</svg>
