<?xml version="1.0" encoding="iso-8859-1"?>
<!-- Generator: Adobe Illustrator 19.0.0, SVG Export Plug-In . SVG Version: 6.00 Build 0)  -->
<svg version="1.1" id="Layer_1" xmlns="http://www.w3.org/2000/svg" xmlns:xlink="http://www.w3.org/1999/xlink" x="0px" y="0px"
	 viewBox="0 0 478.53 478.53" style="enable-background:new 0 0 478.53 478.53;" xml:space="preserve">
<g>
	<g>
		<path d="M477.795,184.279c-1.765-5.431-6.458-9.389-12.108-10.209l-147.159-21.384l-65.812-133.35
			c-2.527-5.12-7.741-8.361-13.451-8.361s-10.924,3.241-13.451,8.361l-65.812,133.35L12.843,174.07
			c-5.65,0.82-10.344,4.778-12.108,10.209c-1.765,5.43-0.293,11.391,3.796,15.376l106.484,103.798L85.877,450.018
			c-0.965,5.627,1.349,11.314,5.968,14.671c4.618,3.354,10.741,3.799,15.797,1.142l131.623-69.199l131.623,69.199
			c2.195,1.153,4.592,1.723,6.979,1.723c3.11,0,6.205-0.966,8.818-2.864c4.619-3.356,6.933-9.044,5.968-14.671l-25.138-146.565
			l106.484-103.798C478.088,195.669,479.56,189.708,477.795,184.279z"/>
	</g>
</g>
<g>
</g>
<g>
</g>
<g>
</g>
<g>
</g>
<g>
</g>
<g>
</g>
<g>
</g>
<g>
</g>
<g>
</g>
<g>
</g>
<g>
</g>
<g>
</g>
<g>
</g>
<g>
</g>
<g>
</g>
</svg>
